<svg xmlns="http://www.w3.org/2000/svg" viewBox="0 0 960 960" width="960" height="960">
  <!-- Main house body -->
  <path fill="#2C3E50" d="M200,420 L760,420 L760,820 L200,820 Z"/>
  
  <!-- Roof -->
  <path fill="#1A252F" d="M480,140 L120,420 L200,420 L480,220 L760,420 L840,420 Z"/>
  
  <!-- Top floor - 3 windows -->
  <rect fill="#F39C12" x="250" y="480" width="100" height="90" rx="8"/>
  <rect fill="#34495E" x="430" y="480" width="100" height="90" rx="8"/>
  <rect fill="#F39C12" x="610" y="480" width="100" height="90" rx="8"/>
  
  <!-- Bottom floor - 2 windows (left and right) -->
  <rect fill="#34495E" x="250" y="650" width="100" height="90" rx="8"/>
  <rect fill="#F39C12" x="610" y="650" width="100" height="90" rx="8"/>
  
  <!-- Door in the middle bottom -->
  <rect fill="#34495E" x="415" y="660" width="130" height="160" rx="10"/>
  <circle fill="#F39C12" cx="520" cy="740" r="8"/>
  
  <!-- Clock/timer symbol showing 10 o'clock -->
  <circle fill="#3498DB" cx="720" cy="280" r="60" opacity="0.9"/>
  <!-- Hour hand pointing to 10 -->
  <path fill="none" stroke="white" stroke-width="8" stroke-linecap="round" d="M720,280 L685,260"/>
  <!-- Minute hand pointing to 12 -->
  <path fill="none" stroke="white" stroke-width="8" stroke-linecap="round" d="M720,280 L720,230"/>
  <circle fill="white" cx="720" cy="280" r="8"/>
</svg>